<mxfile host="app.diagrams.net" modified="2022-12-30T15:23:23.142Z" agent="5.0 (X11; Linux x86_64) AppleWebKit/537.36 (KHTML, like Gecko) Chrome/107.0.0.0 Safari/537.36" etag="-8zeWnHsAokYbC8oVAtt" version="20.7.4" type="github">
  <diagram id="G8-z9XxRLCdR_GGqDWJ_" name="UML">
    <mxGraphModel dx="965" dy="-796" grid="1" gridSize="10" guides="1" tooltips="1" connect="1" arrows="1" fold="1" page="1" pageScale="1" pageWidth="827" pageHeight="1169" math="0" shadow="0">
      <root>
        <mxCell id="0" />
        <mxCell id="1" parent="0" />
        <mxCell id="j_ZHUDLepbIBqZkPZ3a7-9" value="" style="rounded=0;whiteSpace=wrap;html=1;fontSize=4;fillColor=none;dashed=1;fontColor=#666666;strokeColor=#666666;" parent="1" vertex="1">
          <mxGeometry x="827" y="1670" width="333" height="320" as="geometry" />
        </mxCell>
        <mxCell id="QPstVVdOQ1XcHwnL6DTK-19" value="&lt;span style=&quot;font-size: 6px;&quot;&gt;&lt;b&gt;POSTGRE&lt;br&gt;DATABASE&lt;/b&gt;&lt;/span&gt;" style="shape=cylinder3;whiteSpace=wrap;html=1;boundedLbl=1;backgroundOutline=1;size=15;dashed=1;fontFamily=Courier New;fontSize=4;fontColor=#FFFFFF;fillColor=#DB2843;strokeColor=#A9C4EB;align=center;" parent="1" vertex="1">
          <mxGeometry x="840" y="1920" width="50" height="60" as="geometry" />
        </mxCell>
        <mxCell id="QPstVVdOQ1XcHwnL6DTK-14" value="" style="group" parent="1" vertex="1" connectable="0">
          <mxGeometry x="932" y="1770" width="200" height="55.710000000000036" as="geometry" />
        </mxCell>
        <mxCell id="QPstVVdOQ1XcHwnL6DTK-15" value="" style="rounded=1;whiteSpace=wrap;html=1;fillColor=#7EA6E0;strokeColor=#6c8ebf;" parent="QPstVVdOQ1XcHwnL6DTK-14" vertex="1">
          <mxGeometry width="70" height="55.71" as="geometry" />
        </mxCell>
        <mxCell id="QPstVVdOQ1XcHwnL6DTK-16" value="&lt;font size=&quot;1&quot; color=&quot;#ffffff&quot; face=&quot;Courier New&quot; style=&quot;&quot;&gt;&lt;b style=&quot;font-size: 6px;&quot;&gt;Order Manager&lt;/b&gt;&lt;/font&gt;" style="text;html=1;strokeColor=none;fillColor=none;align=center;verticalAlign=middle;whiteSpace=wrap;rounded=0;" parent="QPstVVdOQ1XcHwnL6DTK-14" vertex="1">
          <mxGeometry y="6.963749999999999" width="64.6" height="13.927499999999998" as="geometry" />
        </mxCell>
        <mxCell id="QPstVVdOQ1XcHwnL6DTK-17" value="&lt;font size=&quot;1&quot; color=&quot;#ffffff&quot; face=&quot;Courier New&quot; style=&quot;&quot;&gt;&lt;b style=&quot;&quot;&gt;&lt;i style=&quot;font-size: 4px;&quot;&gt;&amp;lt;Container&amp;gt;&lt;/i&gt;&lt;/b&gt;&lt;/font&gt;" style="text;html=1;strokeColor=none;fillColor=none;align=center;verticalAlign=middle;whiteSpace=wrap;rounded=0;" parent="QPstVVdOQ1XcHwnL6DTK-14" vertex="1">
          <mxGeometry width="64.6" height="6.963749999999999" as="geometry" />
        </mxCell>
        <mxCell id="QPstVVdOQ1XcHwnL6DTK-27" value="&lt;i&gt;&lt;font color=&quot;#ffffff&quot;&gt;System that manages wallets, tickers and orders&lt;/font&gt;&lt;/i&gt;" style="text;html=1;strokeColor=none;fillColor=none;align=center;verticalAlign=middle;whiteSpace=wrap;rounded=0;dashed=1;fontFamily=Helvetica;fontSize=4;fontColor=#666666;" parent="QPstVVdOQ1XcHwnL6DTK-14" vertex="1">
          <mxGeometry y="25.71" width="70" height="30" as="geometry" />
        </mxCell>
        <mxCell id="QPstVVdOQ1XcHwnL6DTK-21" value="" style="group" parent="1" vertex="1" connectable="0">
          <mxGeometry x="1039" y="1770" width="101" height="55.710000000000036" as="geometry" />
        </mxCell>
        <mxCell id="QPstVVdOQ1XcHwnL6DTK-22" value="" style="rounded=1;whiteSpace=wrap;html=1;fillColor=#7EA6E0;strokeColor=#6c8ebf;" parent="QPstVVdOQ1XcHwnL6DTK-21" vertex="1">
          <mxGeometry width="101" height="55.709999999999994" as="geometry" />
        </mxCell>
        <mxCell id="QPstVVdOQ1XcHwnL6DTK-23" value="&lt;font size=&quot;1&quot; color=&quot;#ffffff&quot; face=&quot;Courier New&quot; style=&quot;&quot;&gt;&lt;b style=&quot;font-size: 6px;&quot;&gt;Real Time Info Manager&lt;/b&gt;&lt;/font&gt;" style="text;html=1;strokeColor=none;fillColor=none;align=center;verticalAlign=middle;whiteSpace=wrap;rounded=0;" parent="QPstVVdOQ1XcHwnL6DTK-21" vertex="1">
          <mxGeometry y="6.963749999999999" width="101" height="13.927499999999998" as="geometry" />
        </mxCell>
        <mxCell id="QPstVVdOQ1XcHwnL6DTK-24" value="&lt;font size=&quot;1&quot; color=&quot;#ffffff&quot; face=&quot;Courier New&quot; style=&quot;&quot;&gt;&lt;b style=&quot;&quot;&gt;&lt;i style=&quot;font-size: 4px;&quot;&gt;&amp;lt;Container&amp;gt;&lt;/i&gt;&lt;/b&gt;&lt;/font&gt;" style="text;html=1;strokeColor=none;fillColor=none;align=center;verticalAlign=middle;whiteSpace=wrap;rounded=0;" parent="QPstVVdOQ1XcHwnL6DTK-21" vertex="1">
          <mxGeometry width="101" height="6.963749999999999" as="geometry" />
        </mxCell>
        <mxCell id="QPstVVdOQ1XcHwnL6DTK-29" value="&lt;i&gt;System that calculates information about orders , provides information about tickers in real-time&lt;/i&gt;" style="text;html=1;strokeColor=none;fillColor=none;align=center;verticalAlign=middle;whiteSpace=wrap;rounded=0;dashed=1;fontFamily=Helvetica;fontSize=4;fontColor=#FFFFFF;" parent="QPstVVdOQ1XcHwnL6DTK-21" vertex="1">
          <mxGeometry y="25.71" width="100" height="30" as="geometry" />
        </mxCell>
        <mxCell id="QPstVVdOQ1XcHwnL6DTK-30" value="&lt;span style=&quot;font-size: 6px;&quot;&gt;&lt;b&gt;REDIS&lt;/b&gt;&lt;/span&gt;" style="shape=cylinder3;whiteSpace=wrap;html=1;boundedLbl=1;backgroundOutline=1;size=15;dashed=1;fontFamily=Courier New;fontSize=4;fontColor=#FFFFFF;fillColor=#DB2843;strokeColor=#A9C4EB;align=center;" parent="1" vertex="1">
          <mxGeometry x="900" y="1920" width="50" height="60" as="geometry" />
        </mxCell>
        <mxCell id="QPstVVdOQ1XcHwnL6DTK-31" style="edgeStyle=orthogonalEdgeStyle;rounded=1;orthogonalLoop=1;jettySize=auto;html=1;entryX=1;entryY=0.5;entryDx=0;entryDy=0;entryPerimeter=0;strokeColor=#666666;fontFamily=Helvetica;fontSize=4;fontColor=#FFFFFF;exitX=0.5;exitY=1;exitDx=0;exitDy=0;startArrow=classic;startFill=1;elbow=vertical;" parent="1" source="QPstVVdOQ1XcHwnL6DTK-29" target="QPstVVdOQ1XcHwnL6DTK-30" edge="1">
          <mxGeometry relative="1" as="geometry" />
        </mxCell>
        <mxCell id="QPstVVdOQ1XcHwnL6DTK-32" value="&lt;font color=&quot;#666666&quot;&gt;&lt;b&gt;&lt;i&gt;&amp;nbsp;In&amp;nbsp; memory database interaction&lt;/i&gt;&lt;/b&gt;&lt;/font&gt;" style="edgeLabel;html=1;align=center;verticalAlign=middle;resizable=0;points=[];fontSize=4;fontFamily=Helvetica;fontColor=#FFFFFF;" parent="QPstVVdOQ1XcHwnL6DTK-31" vertex="1" connectable="0">
          <mxGeometry x="-0.1168" y="1" relative="1" as="geometry">
            <mxPoint x="-51" y="8" as="offset" />
          </mxGeometry>
        </mxCell>
        <mxCell id="QPstVVdOQ1XcHwnL6DTK-60" style="edgeStyle=orthogonalEdgeStyle;rounded=1;orthogonalLoop=1;jettySize=auto;html=1;entryX=0.5;entryY=0;entryDx=0;entryDy=0;entryPerimeter=0;strokeColor=#666666;fontFamily=Helvetica;fontSize=4;fontColor=#666666;startArrow=classic;startFill=1;" parent="1" source="QPstVVdOQ1XcHwnL6DTK-27" target="QPstVVdOQ1XcHwnL6DTK-19" edge="1">
          <mxGeometry relative="1" as="geometry" />
        </mxCell>
        <mxCell id="QPstVVdOQ1XcHwnL6DTK-61" value="&lt;b&gt;&lt;i&gt;SQL Interaction&lt;/i&gt;&lt;/b&gt;" style="edgeLabel;html=1;align=center;verticalAlign=middle;resizable=0;points=[];fontSize=4;fontFamily=Helvetica;fontColor=#666666;" parent="QPstVVdOQ1XcHwnL6DTK-60" vertex="1" connectable="0">
          <mxGeometry x="-0.157" relative="1" as="geometry">
            <mxPoint y="22" as="offset" />
          </mxGeometry>
        </mxCell>
        <mxCell id="ZYw7rnv3LOeR9ePvCMEc-19" value="" style="group" parent="1" vertex="1" connectable="0">
          <mxGeometry x="1320" y="1770" width="101" height="55.710000000000036" as="geometry" />
        </mxCell>
        <mxCell id="ZYw7rnv3LOeR9ePvCMEc-20" value="" style="rounded=1;whiteSpace=wrap;html=1;fillColor=#008A00;strokeColor=#6c8ebf;" parent="ZYw7rnv3LOeR9ePvCMEc-19" vertex="1">
          <mxGeometry width="101" height="55.709999999999994" as="geometry" />
        </mxCell>
        <mxCell id="ZYw7rnv3LOeR9ePvCMEc-21" value="&lt;font size=&quot;1&quot; color=&quot;#ffffff&quot; face=&quot;Courier New&quot; style=&quot;&quot;&gt;&lt;b style=&quot;font-size: 6px;&quot;&gt;Third party API&lt;/b&gt;&lt;/font&gt;" style="text;html=1;strokeColor=none;fillColor=none;align=center;verticalAlign=middle;whiteSpace=wrap;rounded=0;" parent="ZYw7rnv3LOeR9ePvCMEc-19" vertex="1">
          <mxGeometry y="6.963749999999999" width="101" height="13.927499999999998" as="geometry" />
        </mxCell>
        <mxCell id="ZYw7rnv3LOeR9ePvCMEc-23" value="&lt;i&gt;API that provides info about tickers&amp;nbsp;&lt;/i&gt;" style="text;html=1;strokeColor=none;fillColor=none;align=center;verticalAlign=middle;whiteSpace=wrap;rounded=0;dashed=1;fontFamily=Helvetica;fontSize=4;fontColor=#FFFFFF;" parent="ZYw7rnv3LOeR9ePvCMEc-19" vertex="1">
          <mxGeometry y="25.71" width="100" height="30" as="geometry" />
        </mxCell>
        <mxCell id="j_ZHUDLepbIBqZkPZ3a7-14" value="Back end: Order Manager" style="rounded=1;whiteSpace=wrap;html=1;arcSize=50;strokeColor=none;strokeWidth=1;fillColor=#343A40;fontColor=#ffffff;whiteSpace=wrap;align=left;verticalAlign=middle;spacingLeft=0;fontStyle=1;fontSize=14;spacing=10;dashed=1;" parent="1" vertex="1">
          <mxGeometry x="840" y="1680" width="217" height="20" as="geometry" />
        </mxCell>
        <mxCell id="j_ZHUDLepbIBqZkPZ3a7-31" value="" style="rounded=0;whiteSpace=wrap;html=1;fontSize=4;fillColor=none;dashed=1;fontColor=#666666;strokeColor=#666666;" parent="1" vertex="1">
          <mxGeometry x="560" y="1670" width="250" height="210" as="geometry" />
        </mxCell>
        <mxCell id="j_ZHUDLepbIBqZkPZ3a7-61" value="Front-end: Order Manager" style="rounded=1;whiteSpace=wrap;html=1;arcSize=50;strokeColor=none;strokeWidth=1;fillColor=#343A40;fontColor=#ffffff;whiteSpace=wrap;align=left;verticalAlign=middle;spacingLeft=0;fontStyle=1;fontSize=14;spacing=10;dashed=1;" parent="1" vertex="1">
          <mxGeometry x="572" y="1680" width="217" height="20" as="geometry" />
        </mxCell>
        <mxCell id="j_ZHUDLepbIBqZkPZ3a7-63" value="" style="group" parent="1" vertex="1" connectable="0">
          <mxGeometry x="720" y="1747.15" width="70" height="55.710000000000036" as="geometry" />
        </mxCell>
        <mxCell id="j_ZHUDLepbIBqZkPZ3a7-34" value="" style="rounded=1;whiteSpace=wrap;html=1;fillColor=#7EA6E0;strokeColor=#6c8ebf;" parent="j_ZHUDLepbIBqZkPZ3a7-63" vertex="1">
          <mxGeometry width="70" height="55.71" as="geometry" />
        </mxCell>
        <mxCell id="j_ZHUDLepbIBqZkPZ3a7-35" value="&lt;font size=&quot;1&quot; color=&quot;#ffffff&quot; face=&quot;Courier New&quot; style=&quot;&quot;&gt;&lt;b style=&quot;font-size: 6px;&quot;&gt;Order Manager UI&lt;/b&gt;&lt;/font&gt;" style="text;html=1;strokeColor=none;fillColor=none;align=center;verticalAlign=middle;whiteSpace=wrap;rounded=0;" parent="j_ZHUDLepbIBqZkPZ3a7-63" vertex="1">
          <mxGeometry y="6.963749999999891" width="64.6" height="13.927499999999998" as="geometry" />
        </mxCell>
        <mxCell id="j_ZHUDLepbIBqZkPZ3a7-36" value="&lt;font size=&quot;1&quot; color=&quot;#ffffff&quot; face=&quot;Courier New&quot; style=&quot;&quot;&gt;&lt;b style=&quot;&quot;&gt;&lt;i style=&quot;font-size: 4px;&quot;&gt;&amp;lt;Container&amp;gt;&lt;/i&gt;&lt;/b&gt;&lt;/font&gt;" style="text;html=1;strokeColor=none;fillColor=none;align=center;verticalAlign=middle;whiteSpace=wrap;rounded=0;" parent="j_ZHUDLepbIBqZkPZ3a7-63" vertex="1">
          <mxGeometry width="64.6" height="6.963749999999999" as="geometry" />
        </mxCell>
        <mxCell id="j_ZHUDLepbIBqZkPZ3a7-37" value="&lt;i&gt;&lt;font color=&quot;#ffffff&quot;&gt;System that manages wallets, tickers and orders&lt;/font&gt;&lt;/i&gt;" style="text;html=1;strokeColor=none;fillColor=none;align=center;verticalAlign=middle;whiteSpace=wrap;rounded=0;dashed=1;fontFamily=Helvetica;fontSize=4;fontColor=#666666;" parent="j_ZHUDLepbIBqZkPZ3a7-63" vertex="1">
          <mxGeometry y="25.710000000000036" width="70" height="30" as="geometry" />
        </mxCell>
        <mxCell id="j_ZHUDLepbIBqZkPZ3a7-67" style="edgeStyle=orthogonalEdgeStyle;rounded=1;orthogonalLoop=1;jettySize=auto;html=1;entryX=0;entryY=0;entryDx=0;entryDy=0;strokeColor=#666666;fontFamily=Helvetica;fontSize=4;fontColor=#666666;" parent="1" target="QPstVVdOQ1XcHwnL6DTK-27" edge="1">
          <mxGeometry relative="1" as="geometry">
            <mxPoint x="790" y="1770" as="sourcePoint" />
            <mxPoint x="932" y="1795.71" as="targetPoint" />
            <Array as="points">
              <mxPoint x="790" y="1770" />
              <mxPoint x="880" y="1770" />
              <mxPoint x="880" y="1796" />
            </Array>
          </mxGeometry>
        </mxCell>
        <mxCell id="j_ZHUDLepbIBqZkPZ3a7-68" value="&lt;b&gt;&lt;i&gt;HTTP&amp;nbsp; Interaction&lt;/i&gt;&lt;/b&gt;" style="edgeLabel;html=1;align=center;verticalAlign=middle;resizable=0;points=[];fontSize=4;fontFamily=Helvetica;fontColor=#666666;" parent="j_ZHUDLepbIBqZkPZ3a7-67" vertex="1" connectable="0">
          <mxGeometry x="-0.157" relative="1" as="geometry">
            <mxPoint x="19" y="14" as="offset" />
          </mxGeometry>
        </mxCell>
        <mxCell id="j_ZHUDLepbIBqZkPZ3a7-69" style="edgeStyle=orthogonalEdgeStyle;rounded=1;orthogonalLoop=1;jettySize=auto;html=1;entryX=0.5;entryY=0;entryDx=0;entryDy=0;strokeColor=#666666;fontFamily=Helvetica;fontSize=4;fontColor=#666666;exitX=0.5;exitY=0;exitDx=0;exitDy=0;startArrow=classic;startFill=1;" parent="1" source="j_ZHUDLepbIBqZkPZ3a7-36" target="QPstVVdOQ1XcHwnL6DTK-24" edge="1">
          <mxGeometry relative="1" as="geometry">
            <mxPoint x="896" y="1720.0000000000002" as="sourcePoint" />
            <mxPoint x="1038" y="1742.8500000000001" as="targetPoint" />
            <Array as="points">
              <mxPoint x="752" y="1720" />
              <mxPoint x="1090" y="1720" />
            </Array>
          </mxGeometry>
        </mxCell>
        <mxCell id="j_ZHUDLepbIBqZkPZ3a7-70" value="&lt;b&gt;&lt;i&gt;WebSocket Interaction&lt;/i&gt;&lt;/b&gt;" style="edgeLabel;html=1;align=center;verticalAlign=middle;resizable=0;points=[];fontSize=4;fontFamily=Helvetica;fontColor=#666666;" parent="j_ZHUDLepbIBqZkPZ3a7-69" vertex="1" connectable="0">
          <mxGeometry x="-0.157" relative="1" as="geometry">
            <mxPoint x="25" as="offset" />
          </mxGeometry>
        </mxCell>
        <mxCell id="j_ZHUDLepbIBqZkPZ3a7-78" style="edgeStyle=entityRelationEdgeStyle;rounded=0;orthogonalLoop=1;jettySize=auto;html=1;entryX=0;entryY=0;entryDx=0;entryDy=0;fontSize=16;fontColor=#666666;startArrow=classic;startFill=1;elbow=vertical;" parent="1" source="j_ZHUDLepbIBqZkPZ3a7-76" target="j_ZHUDLepbIBqZkPZ3a7-37" edge="1">
          <mxGeometry relative="1" as="geometry" />
        </mxCell>
        <mxCell id="j_ZHUDLepbIBqZkPZ3a7-76" value="" style="shape=actor;whiteSpace=wrap;html=1;rounded=0;strokeColor=default;fontSize=16;fontColor=#666666;fillColor=#808080;" parent="1" vertex="1">
          <mxGeometry x="610" y="1742.86" width="40" height="60" as="geometry" />
        </mxCell>
        <mxCell id="j_ZHUDLepbIBqZkPZ3a7-115" style="edgeStyle=orthogonalEdgeStyle;rounded=1;orthogonalLoop=1;jettySize=auto;html=1;entryX=0;entryY=0.5;entryDx=0;entryDy=0;strokeColor=#666666;fontFamily=Helvetica;fontSize=4;fontColor=#666666;dashed=1;exitX=0.25;exitY=1;exitDx=0;exitDy=0;" parent="1" source="QPstVVdOQ1XcHwnL6DTK-27" target="Q6jOi1UHWUIlSX6pkAzE-12" edge="1">
          <mxGeometry relative="1" as="geometry">
            <mxPoint x="950" y="1830" as="sourcePoint" />
            <mxPoint x="944.0999999999999" y="1930" as="targetPoint" />
            <Array as="points">
              <mxPoint x="949" y="1885" />
            </Array>
          </mxGeometry>
        </mxCell>
        <mxCell id="j_ZHUDLepbIBqZkPZ3a7-116" value="&lt;b style=&quot;font-style: italic;&quot;&gt;Publishes data of updated order:&lt;/b&gt;&lt;br&gt;&lt;i&gt;[execution.updated]&lt;/i&gt;" style="edgeLabel;html=1;align=center;verticalAlign=middle;resizable=0;points=[];fontSize=4;fontFamily=Helvetica;fontColor=#666666;" parent="j_ZHUDLepbIBqZkPZ3a7-115" vertex="1" connectable="0">
          <mxGeometry x="-0.157" relative="1" as="geometry">
            <mxPoint x="-4" y="-7" as="offset" />
          </mxGeometry>
        </mxCell>
        <mxCell id="j_ZHUDLepbIBqZkPZ3a7-121" style="edgeStyle=orthogonalEdgeStyle;rounded=1;orthogonalLoop=1;jettySize=auto;html=1;entryX=0.25;entryY=1;entryDx=0;entryDy=0;strokeColor=#666666;fontFamily=Helvetica;fontSize=4;fontColor=#666666;exitX=1;exitY=0.5;exitDx=0;exitDy=0;dashed=1;" parent="1" source="Q6jOi1UHWUIlSX6pkAzE-12" target="QPstVVdOQ1XcHwnL6DTK-29" edge="1">
          <mxGeometry relative="1" as="geometry">
            <mxPoint x="979.0999999999999" y="1930" as="sourcePoint" />
            <mxPoint x="954.0999999999999" y="1940" as="targetPoint" />
            <Array as="points">
              <mxPoint x="1064" y="1885" />
            </Array>
          </mxGeometry>
        </mxCell>
        <mxCell id="j_ZHUDLepbIBqZkPZ3a7-122" value="&lt;b style=&quot;font-style: italic;&quot;&gt;Consumes data of updated order:&lt;/b&gt;&lt;br&gt;&lt;i&gt;[execution.updated]&lt;/i&gt;" style="edgeLabel;html=1;align=center;verticalAlign=middle;resizable=0;points=[];fontSize=4;fontFamily=Helvetica;fontColor=#666666;" parent="j_ZHUDLepbIBqZkPZ3a7-121" vertex="1" connectable="0">
          <mxGeometry x="-0.157" relative="1" as="geometry">
            <mxPoint x="-14" as="offset" />
          </mxGeometry>
        </mxCell>
        <mxCell id="Q6jOi1UHWUIlSX6pkAzE-12" value="" style="shape=message;html=1;html=1;outlineConnect=0;labelPosition=center;verticalLabelPosition=bottom;align=center;verticalAlign=top;strokeWidth=0.5;fillColor=#d5e8d4;strokeColor=#82b366;" vertex="1" parent="1">
          <mxGeometry x="982" y="1880" width="20" height="10" as="geometry" />
        </mxCell>
        <mxCell id="Q6jOi1UHWUIlSX6pkAzE-18" style="edgeStyle=orthogonalEdgeStyle;rounded=1;orthogonalLoop=1;jettySize=auto;html=1;entryX=1;entryY=0.5;entryDx=0;entryDy=0;strokeColor=#666666;fontFamily=Helvetica;fontSize=4;fontColor=#666666;startArrow=classic;startFill=1;exitX=-0.022;exitY=0.509;exitDx=0;exitDy=0;exitPerimeter=0;" edge="1" parent="1" source="ZYw7rnv3LOeR9ePvCMEc-23" target="QPstVVdOQ1XcHwnL6DTK-29">
          <mxGeometry relative="1" as="geometry">
            <mxPoint x="1207" y="1830.3596774193547" as="sourcePoint" />
            <mxPoint x="1140.0000000000002" y="1939.65" as="targetPoint" />
          </mxGeometry>
        </mxCell>
        <mxCell id="Q6jOi1UHWUIlSX6pkAzE-19" value="&lt;i style=&quot;&quot;&gt;&lt;b&gt;HTTP Interaction:&lt;/b&gt;&lt;br&gt;Starts 9am | Each 10min | until&amp;nbsp; 6pm&lt;br&gt;&lt;/i&gt;" style="edgeLabel;html=1;align=center;verticalAlign=middle;resizable=0;points=[];fontSize=4;fontFamily=Helvetica;fontColor=#666666;" vertex="1" connectable="0" parent="Q6jOi1UHWUIlSX6pkAzE-18">
          <mxGeometry x="-0.157" relative="1" as="geometry">
            <mxPoint as="offset" />
          </mxGeometry>
        </mxCell>
        <mxCell id="Q6jOi1UHWUIlSX6pkAzE-20" style="edgeStyle=orthogonalEdgeStyle;rounded=1;orthogonalLoop=1;jettySize=auto;html=1;entryX=0.5;entryY=0;entryDx=0;entryDy=0;strokeColor=#666666;fontFamily=Helvetica;fontSize=4;fontColor=#666666;startArrow=classic;startFill=1;exitX=0.5;exitY=0;exitDx=0;exitDy=0;" edge="1" parent="1" source="ZYw7rnv3LOeR9ePvCMEc-20" target="QPstVVdOQ1XcHwnL6DTK-17">
          <mxGeometry relative="1" as="geometry">
            <mxPoint x="1257" y="1742.8622222222223" as="sourcePoint" />
            <mxPoint x="1190" y="1852.14" as="targetPoint" />
          </mxGeometry>
        </mxCell>
        <mxCell id="Q6jOi1UHWUIlSX6pkAzE-21" value="&lt;i style=&quot;&quot;&gt;&lt;b&gt;HTTP Interaction:&lt;/b&gt;&lt;br&gt;Each 12am&lt;br&gt;&lt;/i&gt;" style="edgeLabel;html=1;align=center;verticalAlign=middle;resizable=0;points=[];fontSize=4;fontFamily=Helvetica;fontColor=#666666;" vertex="1" connectable="0" parent="Q6jOi1UHWUIlSX6pkAzE-20">
          <mxGeometry x="-0.157" relative="1" as="geometry">
            <mxPoint x="-18" y="1" as="offset" />
          </mxGeometry>
        </mxCell>
      </root>
    </mxGraphModel>
  </diagram>
</mxfile>
